PathFileType	4	(X/Y/Z)	/home/nbianco/projects/addbio/data/HamnerRunning2013/Processed/subject17//results/MarkerData/run500.trc
DataRate	CameraRate	NumFrames	NumMarkers	Units	OrigDataRate	OrigDataStartFrame	OrigNumFrames
120.005	120.005	8	41	m	120.005	178	238
Frame#	Time	C7			CLAV			LACR			LASI			LCAL			LFAradius			LFAsuperior			LFAulna			LLEL			LMEL			LMT5			LPSI			LTB1			LTB2			LTB3			LTH1			LTH2			LTH3			LTOE			LUA1			LUA2			LUA3			RACR			RASI			RCAL			RFAradius			RFAsuperior			RFAulna			RLEL			RMEL			RMT5			RPSI			RTB1			RTB2			RTB3			RTH1			RTH3			RTOE			RUA1			RUA2			RUA3		
		X1	Y1	Z1	X2	Y2	Z2	X3	Y3	Z3	X4	Y4	Z4	X5	Y5	Z5	X6	Y6	Z6	X7	Y7	Z7	X8	Y8	Z8	X9	Y9	Z9	X10	Y10	Z10	X11	Y11	Z11	X12	Y12	Z12	X13	Y13	Z13	X14	Y14	Z14	X15	Y15	Z15	X16	Y16	Z16	X17	Y17	Z17	X18	Y18	Z18	X19	Y19	Z19	X20	Y20	Z20	X21	Y21	Z21	X22	Y22	Z22	X23	Y23	Z23	X24	Y24	Z24	X25	Y25	Z25	X26	Y26	Z26	X27	Y27	Z27	X28	Y28	Z28	X29	Y29	Z29	X30	Y30	Z30	X31	Y31	Z31	X32	Y32	Z32	X33	Y33	Z33	X34	Y34	Z34	X35	Y35	Z35	X36	Y36	Z36	X37	Y37	Z37	X38	Y38	Z38	X39	Y39	Z39	X40	Y40	Z40	X41	Y41	Z41

179	1.73333	0.904818	1.4813	-0.318893	1.02935	1.41803	-0.286682	0.969026	1.43104	-0.50433	0.982064	0.96228	-0.427931	0.746729	0.483687	-0.392456	0.917101	1.04978	-0.482646	0.847689	1.10079	-0.578498	0.898226	1.01026	-0.536518	0.771366	1.20103	-0.612199	0.729313	1.21415	-0.538297	0.797325	0.293445	-0.453265	0.820969	1.00564	-0.367333	1.08609	0.46793	-0.371969	1.00362	0.484542	-0.450555	0.919108	0.431883	-0.383071	0.97939	0.794802	-0.481484	1.09829	0.746511	-0.467594	1.10904	0.625051	-0.455939	0.814262	0.288841	-0.362004	0.878738	1.33068	-0.568405	0.800441	1.31406	-0.563761	0.84265	1.24675	-0.585135	0.973186	1.42574	-0.108153	0.962483	0.955462	-0.200082	0.552619	0.13278	-0.29971	1.02299	1.05585	-0.113353	0.952655	1.10682	-0.0302768	1.01886	1.0086	-0.0600973	0.846243	1.1658	0.0120644	0.807203	1.14185	-0.0572537	0.730125	0.060537	-0.243617	0.805289	1.01032	-0.268705	0.832758	0.314666	-0.290854	0.769915	0.278674	-0.229413	0.744941	0.226977	-0.297895	0.890954	0.787246	-0.143038	0.865914	0.540358	-0.2054	0.74867	0.0702876	-0.339437	0.918002	1.29796	-0.0493766	0.842563	1.29649	-0.0596093	0.876739	1.22632	-0.0147573
180	1.74167	0.903516	1.48635	-0.318683	1.02892	1.42418	-0.289772	0.963292	1.43818	-0.504875	0.983244	0.969615	-0.428067	0.766928	0.452974	-0.391349	0.906812	1.0612	-0.484152	0.836626	1.11398	-0.579032	0.887218	1.02225	-0.538152	0.760149	1.21414	-0.610942	0.719869	1.22757	-0.535891	0.840966	0.269885	-0.451054	0.8226	1.01172	-0.364895	1.10684	0.474531	-0.370246	1.02255	0.4834	-0.447893	0.943829	0.420874	-0.381745	0.984206	0.805101	-0.481838	1.10331	0.760553	-0.466221	1.11925	0.639749	-0.453486	0.858865	0.268293	-0.359966	0.870882	1.34136	-0.568447	0.79267	1.32605	-0.561793	0.83292	1.25818	-0.585108	0.977203	1.43242	-0.110086	0.969212	0.959335	-0.19813	0.517914	0.146643	-0.297452	1.03497	1.07209	-0.118748	0.963805	1.11786	-0.0335975	1.03383	1.0234	-0.0667871	0.855978	1.1709	0.0123311	0.816417	1.14643	-0.0564245	0.689638	0.0607526	-0.24409	0.811131	1.01435	-0.266171	0.8012	0.321225	-0.289193	0.737189	0.287011	-0.227937	0.711279	0.234836	-0.296665	0.888306	0.791546	-0.144148	0.845013	0.546127	-0.206054	0.708727	0.0703458	-0.339596	0.924627	1.30403	-0.0500877	0.849068	1.30208	-0.0583986	0.8852	1.23217	-0.0147553
181	1.75	0.902222	1.49169	-0.318534	1.02833	1.43059	-0.292861	0.957753	1.44547	-0.505186	0.985029	0.977432	-0.428037	0.790252	0.421477	-0.389493	0.897459	1.07305	-0.485121	0.826293	1.12715	-0.579082	0.877167	1.03452	-0.539206	0.749669	1.22745	-0.609404	0.711238	1.24103	-0.533179	0.886714	0.248616	-0.44859	0.824753	1.01806	-0.362389	1.12599	0.480704	-0.368784	1.04115	0.481053	-0.445209	0.969153	0.409543	-0.380151	0.989777	0.815832	-0.482676	1.10846	0.774219	-0.464814	1.12763	0.653486	-0.450998	0.904872	0.249846	-0.357877	0.86336	1.3523	-0.568061	0.78541	1.33822	-0.559069	0.823891	1.27004	-0.58471	0.980992	1.43939	-0.112173	0.977486	0.963036	-0.196932	0.48566	0.162761	-0.294995	1.04527	1.08831	-0.12409	0.973774	1.12924	-0.0369538	1.04699	1.03836	-0.0737031	0.865189	1.17661	0.0125385	0.824652	1.15185	-0.0554979	0.649449	0.0609879	-0.244535	0.818459	1.01837	-0.263861	0.770447	0.330122	-0.287133	0.705549	0.297583	-0.225933	0.679207	0.244397	-0.294422	0.886814	0.798063	-0.14463	0.825305	0.5538	-0.2059	0.668882	0.0701638	-0.339784	0.930814	1.31062	-0.0508167	0.855122	1.30795	-0.0572518	0.893359	1.23854	-0.014795
182	1.75833	0.900935	1.49709	-0.318384	1.02757	1.437	-0.295808	0.952478	1.45261	-0.505278	0.987392	0.985643	-0.428198	0.81681	0.38972	-0.387218	0.889054	1.0851	-0.485712	0.81659	1.13996	-0.578685	0.867976	1.04681	-0.539662	0.739875	1.24058	-0.607616	0.70338	1.25424	-0.530299	0.934206	0.229954	-0.445744	0.82738	1.02449	-0.36002	1.14383	0.486375	-0.367104	1.05975	0.477446	-0.442585	0.995597	0.398176	-0.378055	0.99569	0.82674	-0.483464	1.1137	0.787405	-0.463371	1.13413	0.665742	-0.44828	0.951916	0.233679	-0.355347	0.856185	1.36309	-0.567227	0.778655	1.35029	-0.555717	0.815507	1.28209	-0.584065	0.984587	1.44647	-0.114361	0.985705	0.966776	-0.196903	0.456848	0.180077	-0.292445	1.05388	1.10406	-0.129363	0.982688	1.14065	-0.0402315	1.05844	1.05309	-0.0807015	0.873949	1.18273	0.0127736	0.832066	1.15783	-0.0544387	0.610205	0.061317	-0.244672	0.825613	1.02258	-0.261811	0.741252	0.341046	-0.284261	0.675696	0.310078	-0.223044	0.64975	0.25523	-0.290918	0.886525	0.805645	-0.14469	0.806935	0.56332	-0.204667	0.629901	0.0699307	-0.339633	0.936619	1.31752	-0.0515228	0.860773	1.31394	-0.0561151	0.901211	1.24528	-0.0147433
183	1.76667	0.899675	1.50225	-0.318167	1.02672	1.44313	-0.298465	0.947481	1.45939	-0.505155	0.990161	0.994081	-0.428795	0.846566	0.358187	-0.384808	0.881565	1.09711	-0.486094	0.807542	1.15225	-0.577991	0.859616	1.05883	-0.539615	0.730714	1.25322	-0.605657	0.696211	1.26687	-0.527356	0.983133	0.214129	-0.442342	0.830353	1.03076	-0.357953	1.16058	0.491423	-0.364869	1.07856	0.472697	-0.440035	1.02324	0.387075	-0.375359	1.00126	0.837426	-0.483435	1.11876	0.799704	-0.461994	1.13871	0.676088	-0.44499	0.999722	0.220035	-0.351971	0.849401	1.3734	-0.56605	0.772403	1.36197	-0.551974	0.807626	1.294	-0.5833	0.988014	1.45348	-0.116615	0.992842	0.970631	-0.198197	0.432272	0.198077	-0.289661	1.06088	1.11894	-0.134675	0.990664	1.15181	-0.0433817	1.06833	1.06735	-0.0874964	0.882307	1.18907	0.0130984	0.838945	1.16403	-0.0532666	0.572161	0.0621416	-0.244257	0.831562	1.02707	-0.260082	0.714237	0.353611	-0.280346	0.648007	0.32424	-0.219154	0.623421	0.267008	-0.286225	0.887051	0.812976	-0.144675	0.789776	0.5746	-0.202561	0.592503	0.0703275	-0.338769	0.942169	1.32453	-0.0521879	0.8662	1.32006	-0.0549892	0.908754	1.25221	-0.0145145
184	1.775	0.898495	1.50688	-0.317854	1.02589	1.44873	-0.300729	0.942739	1.46562	-0.504787	0.993078	1.00249	-0.429853	0.879374	0.327356	-0.382458	0.874926	1.10876	-0.486422	0.799229	1.16392	-0.577204	0.852125	1.07033	-0.539296	0.722159	1.26513	-0.603674	0.689614	1.27861	-0.524455	1.03313	0.201254	-0.438193	0.833504	1.03661	-0.356276	1.17629	0.49573	-0.36199	1.09765	0.467071	-0.437493	1.05178	0.376491	-0.372153	1.00577	0.847329	-0.482004	1.12322	0.810425	-0.460897	1.1414	0.684329	-0.440881	1.04797	0.209216	-0.347551	0.843058	1.38297	-0.564705	0.766644	1.37294	-0.54816	0.800109	1.30542	-0.582514	0.991273	1.46021	-0.118903	0.998794	0.974466	-0.200435	0.41232	0.216853	-0.28622	1.06645	1.13266	-0.140131	0.997783	1.16247	-0.0464018	1.0768	1.08095	-0.0938198	0.890259	1.19544	0.0135316	0.845496	1.17017	-0.0520145	0.535299	0.0642957	-0.243138	0.836302	1.0317	-0.258765	0.689823	0.3675	-0.275587	0.622602	0.339965	-0.214526	0.600226	0.279578	-0.280698	0.887857	0.819229	-0.144675	0.773708	0.587452	-0.200214	0.557269	0.0724025	-0.336894	0.947623	1.33141	-0.0528243	0.871616	1.32627	-0.0539311	0.915985	1.25917	-0.0141029
185	1.78333	0.897451	1.51075	-0.31745	1.02519	1.45359	-0.302575	0.938231	1.47108	-0.504135	0.995927	1.01051	-0.431253	0.914979	0.297744	-0.380268	0.869054	1.11971	-0.486812	0.791717	1.17486	-0.576516	0.845564	1.08107	-0.539037	0.714208	1.27609	-0.601828	0.683463	1.28913	-0.52172	1.08369	0.191282	-0.433149	0.83669	1.0419	-0.355001	1.19092	0.499214	-0.35859	1.11707	0.460922	-0.43487	1.08077	0.366609	-0.368657	1.00883	0.855841	-0.479244	1.12657	0.81875	-0.460316	1.14238	0.690484	-0.436108	1.09622	0.201425	-0.342176	0.837186	1.39161	-0.563342	0.761342	1.38284	-0.544602	0.7929	1.31595	-0.581788	0.994355	1.46643	-0.12119	1.00397	0.977976	-0.202899	0.396656	0.236719	-0.281639	1.07089	1.14508	-0.145672	1.00407	1.17243	-0.0492982	1.08395	1.09361	-0.0996384	0.897749	1.20165	0.0140573	0.851718	1.17609	-0.0506941	0.499686	0.0689207	-0.241287	0.840444	1.03622	-0.257895	0.668238	0.382426	-0.270705	0.599695	0.357054	-0.209737	0.579823	0.292936	-0.274936	0.88855	0.824354	-0.144391	0.75884	0.601454	-0.198404	0.524522	0.0772424	-0.333931	0.953089	1.33795	-0.0534646	0.877136	1.33246	-0.0530283	0.922895	1.26597	-0.0135571
186	1.79167	0.896565	1.51378	-0.316953	1.02469	1.4576	-0.304064	0.93396	1.4756	-0.503217	0.998603	1.01773	-0.432901	0.952989	0.269912	-0.378192	0.863868	1.12965	-0.487341	0.78503	1.1849	-0.576052	0.839982	1.09085	-0.539162	0.706864	1.28589	-0.600192	0.677667	1.29821	-0.519255	1.13413	0.184048	-0.4272	0.839793	1.04664	-0.354067	1.20437	0.501824	-0.354951	1.13676	0.454592	-0.432176	1.10985	0.357585	-0.365113	1.01061	0.862476	-0.476059	1.12843	0.824024	-0.460303	1.14208	0.694619	-0.431365	1.14392	0.196621	-0.336119	0.83179	1.39916	-0.561997	0.756426	1.39139	-0.541521	0.786045	1.32526	-0.581198	0.99727	1.47193	-0.123412	1.00867	0.980818	-0.205057	0.383954	0.257785	-0.275718	1.07442	1.15612	-0.151021	1.00954	1.18144	-0.0520523	1.08982	1.10484	-0.105216	0.904701	1.20749	0.0146508	0.857453	1.18168	-0.0493015	0.465741	0.0771038	-0.238842	0.844525	1.04053	-0.257359	0.649479	0.397959	-0.266763	0.579833	0.37481	-0.205478	0.561604	0.307129	-0.269741	0.888953	0.828874	-0.143409	0.745563	0.615837	-0.197662	0.494132	0.0856567	-0.330164	0.958562	1.34395	-0.0541372	0.882695	1.33845	-0.0523418	0.929457	1.27243	-0.0129266
